<mxfile host="app.diagrams.net" modified="2023-10-07T08:53:07.038Z" agent="Mozilla/5.0 (Windows NT 10.0; Win64; x64) AppleWebKit/537.36 (KHTML, like Gecko) Chrome/117.0.0.0 Safari/537.36" version="22.0.4" etag="DLv3lyilQQ0FA3atRP3n" type="github">
  <diagram name="Page-1" id="P_WAWH8nLxvHRHWvkCkR">
    <mxGraphModel>
      <root>
        <mxCell id="0" />
        <mxCell id="1" parent="0" />
      </root>
    </mxGraphModel>
  </diagram>
</mxfile>
